{"accessors":[{"bufferView":0,"componentType":5123,"count":4812,"max":[4811],"min":[0],"name":"buffer-0-accessor-indices-buffer-0-mesh-0","type":"SCALAR"},{"bufferView":2,"componentType":5126,"count":4812,"max":[1.119698047637939,4.021694183349609,0.7111790180206299],"min":[-1.119698047637939,0,-0.7358450293540955],"name":"buffer-0-accessor-position-buffer-0-mesh-0","type":"VEC3"},{"bufferView":2,"byteOffset":57744,"componentType":5126,"count":4812,"max":[1,1,1],"min":[-1,-1,-1],"name":"buffer-0-accessor-normal-buffer-0-mesh-0","type":"VEC3"},{"bufferView":1,"componentType":5126,"count":4812,"max":[0.9919459819793701,0],"min":[0,-0.9937999844551086],"name":"buffer-0-accessor-texcoord-buffer-0-mesh-0","type":"VEC2"},{"bufferView":3,"componentType":5126,"count":0,"max":[0,0,0,0],"min":[0,0,0,0],"name":"buffer-0-accessor-color-buffer-0-mesh-0","type":"VEC4"}],"asset":{"extras":{"GOOGLE_processor_version":294144208},"generator":"Obj2GltfConverter","version":"2.0"},"bufferViews":[{"buffer":0,"byteLength":9624,"byteStride":0,"name":"buffer-0-bufferview-ushort","target":34963},{"buffer":0,"byteLength":38496,"byteOffset":9624,"byteStride":8,"name":"buffer-0-bufferview-vec2","target":34962},{"buffer":0,"byteLength":115488,"byteOffset":48120,"byteStride":12,"name":"buffer-0-bufferview-vec3","target":34962},{"buffer":0,"byteLength":1,"name":"buffer-0-bufferview-vec4"}],"buffers":[{"byteLength":163616,"name":"buffer-0","uri":"data:application/octet-stream;base64,"}],"cameras":[{"perspective":{"yfov":0.7853981633974483,"znear":0.1000000014901161},"type":"perspective"}],"extensions":{"KHR_lights_punctual":{"lights":[{"color":[1,0.9333333333333333,0.8666666666666667],"intensity":0.25,"name":"headLight","type":"directional"},{"color":[1,0.9333333333333333,0.8666666666666667],"intensity":0.324999988079071,"name":"keyLight","type":"directional"}]}},"extensionsUsed":["GOOGLE_backgrounds","GOOGLE_camera_settings","KHR_lights_punctual"],"extras":{"GOOGLE_initial_camera_motion":{"motionPath":"FULL_ROTATION"},"GOOGLE_lighting_rig":{"disableShadows":false}},"images":[{"mimeType":"image/png","name":"Astronaut_mat-image","uri":"data:application/octet-stream;base64,"}],"materials":[{"doubleSided":true,"name":"Astronaut_mat","pbrMetallicRoughness":{"baseColorFactor":[0.5,0.5,0.5,1],"baseColorTexture":{"index":0},"metallicFactor":0,"roughnessFactor":0.9699476628648295}}],"meshes":[{"name":"buffer-0-mesh-0","primitives":[{"attributes":{"NORMAL":2,"POSITION":1,"TEXCOORD_0":3},"indices":0,"material":0}]}],"nodes":[{"mesh":0,"name":"node-0"},{"children":[2]},{"children":[3],"extras":{"isTransformNode":1},"translation":[-0.009971470925460404,2.108961134862853,-0.01285705997393671]},{"children":[0],"translation":[0.009971470925460404,-2.108961134862853,0.01285705997393671]},{"camera":0,"children":[5],"rotation":[-0.2219240542792781,-0.2518950318538159,-0.05946428056213499,0.9400864887853888],"translation":[-2.582096317759857,4.681189157482669,4.442210172000502]},{"extensions":{"KHR_lights_punctual":{"light":0}},"extras":{"isHeadLight":1},"name":"headLightNode","translation":[-2.413142642834748,1.206571321417374,1.206571321417374]},{"extensions":{"KHR_lights_punctual":{"light":1}},"extras":{"isKeyLight":1},"name":"keyLightNode","rotation":[-0.7505326882858236,-0.3752663441429118,0,0.5439447166468927],"scale":[0,0,2.437274069263096],"translation":[-2.437276373688037,7.001525095066008,-2.255636832229823]}],"samplers":[{"name":"Astronaut_mat-sampler","wrapS":10497,"wrapT":10497}],"scene":0,"scenes":[{"extensions":{"GOOGLE_backgrounds":{"color":[0,0.7372549019607844,0.8313725490196079]},"GOOGLE_camera_settings":{}},"extras":{"GOOGLE_camera_index":{"cameraIndex":0,"nodeIndex":4},"GOOGLE_geometry_data":{"stats":{"centroid":[-0.000002304424941292031,2.126976956539816,0.1816372370332726],"radius":2.413142642834748,"stdev":1.191126726507961},"visualCenterPoint":[-0.009971470925460404,2.108961134862853,-0.01285705997393671]},"GOOGLE_hemi_light":{"groundColor":[0,0.7372549019607844,0.8313725490196079]}},"name":"scene-0","nodes":[1,4,6]}],"textures":[{"name":"Astronaut_mat-texture","sampler":0,"source":0}]}